<?xml version="1.0" standalone="no"?>
<!DOCTYPE svg PUBLIC "-//W3C//DTD SVG 20010904//EN"
 "http://www.w3.org/TR/2001/REC-SVG-20010904/DTD/svg10.dtd">
<svg version="1.0" xmlns="http://www.w3.org/2000/svg"
 width="16.000000pt" height="16.000000pt" viewBox="0 0 16.000000 16.000000"
 preserveAspectRatio="xMidYMid meet">
<metadata>
Created by potrace 1.11, written by Peter Selinger 2001-2013
</metadata>
<g transform="translate(0.000000,16.000000) scale(0.003232,-0.003232)"
fill="#000000" stroke="none">
<path d="M3695 4383 c-129 -37 -378 -150 -605 -274 -41 -22 -120 -64 -175 -93
l-100 -52 -48 18 c-47 18 -62 21 -167 39 -73 12 -219 11 -300 -1 -158 -25
-334 -104 -463 -207 l-78 -63 -102 5 c-56 3 -120 8 -142 10 -92 10 -290 19
-435 18 -199 0 -266 -9 -390 -50 -147 -48 -311 -153 -416 -265 -48 -51 -144
-179 -144 -192 0 -4 -11 -24 -24 -45 -24 -38 -77 -182 -93 -251 -10 -47 -10
-383 0 -440 23 -121 107 -298 199 -417 121 -158 330 -297 524 -351 38 -11 103
-31 143 -46 100 -36 226 -55 346 -51 87 3 128 8 220 29 29 7 249 81 325 109
131 50 306 118 335 132 79 35 107 38 175 16 36 -12 94 -27 130 -33 61 -10 67
-14 103 -59 20 -27 44 -49 51 -49 23 0 45 -93 43 -178 l-2 -75 -75 -4 c-66 -3
-114 -9 -199 -27 -25 -6 -137 -51 -229 -92 -29 -13 -55 -24 -57 -24 -2 0 -42
-22 -87 -49 -266 -158 -480 -429 -562 -715 -14 -48 -26 -92 -26 -97 0 -5 522
-9 1234 -9 l1234 0 -9 40 c-35 156 -149 382 -248 494 -101 115 -262 256 -290
256 -5 0 -11 4 -13 9 -10 28 -266 137 -414 176 -7 2 -13 56 -17 152 -4 109
-10 164 -25 208 l-19 60 71 25 c89 32 191 89 261 145 l53 44 174 -7 c242 -8
652 -8 719 0 158 20 336 92 460 186 108 82 213 207 277 327 101 192 128 347
126 740 0 180 -2 194 -28 275 -53 160 -131 294 -235 404 -130 137 -315 245
-496 291 -89 23 -118 26 -270 24 -114 -1 -186 -6 -220 -16z"/>
</g>
</svg>
